<svg xmlns="http://www.w3.org/2000/svg" version="1.0" width="800pt" height="800pt" viewBox="0 0 468 426"><path style="opacity:1;fill:#000" d="M980.906 129.719c-13.994 4.376-25.645 14.161-34.763 25.398-22.606 27.025-42.375 56.312-60.424 86.538-16.671 28.62-30.126 59.033-41.174 90.234-5.95 16.616-11.718 33.348-15.799 50.536-4.88 22.796-5.762 46.167-7.415 69.35-.824 16.626-.216 33.39 2.68 49.805 2.071 11.737 5.32 23.363 9.367 34.494 4.5 12.145 10.22 23.804 16.101 35.264 4.036 7.764 8.109 15.513 12.668 22.986 9.038 15.11 19.731 29.535 33.588 40.577 15.144 12.324 32.51 21.648 50.439 29.234 32.42 13.5 67.218 20.718 102.17 23.3 17.734 1.212 35.59 1.298 53.283-.565 19.005-2.242 37.86-5.96 56.207-11.423 20.946-6.582 40.85-16.032 60.284-26.157 16.08-8.791 30.819-20.092 43.153-33.67 14.278-15.579 25.056-34.293 31.57-54.385 7.15-20.515 14.802-40.855 21.738-61.443 7.04-21.45 12.763-43.569 13.79-66.217 1.17-20.265-.266-40.763-5.297-60.466-3.11-12.346-6.5-24.636-10.524-36.718-4.543-13.52-10.207-26.67-17.175-39.12-8.06-15.024-17.039-29.53-26.405-43.77-11.966-18.557-25.195-36.258-38.613-53.78-12.058-15.403-23.799-31.183-37.833-44.881-3.04-2.89-6.097-5.826-9.481-8.295-3.842-2.038-8.847.106-10.66 3.906-2.18 4.012-.82 8.689.363 12.782 2.03 6.415 5.209 12.386 8.248 18.362 10.23 18.414 24.368 34.173 36.766 51.09 8.545 11.487 16.988 23.052 25.237 34.753 9.954 14.321 19.087 29.275 26.31 45.174 5.503 11.847 10.654 23.884 14.894 36.246 4.289 12.54 7.59 25.414 9.737 38.494 2.7 15.567 4.325 31.542 2.129 47.279-3.785 25.834-11.01 51.007-18.914 75.843-7.148 23.336-16.464 46.014-27.864 67.596-7.022 13.645-17.237 25.65-29.693 34.63-18.143 13.945-38.896 24.274-60.587 31.434-11.967 4.03-24.04 7.815-36.335 10.708-19.965 4.156-40.465 4.872-60.797 4.502-23.577-.675-47.072-4.517-69.562-11.653-21.937-6.84-43.09-16.362-62.467-28.741-14.875-9.915-27.246-23.441-36.125-38.936-6.931-11.644-13.24-23.648-19.324-35.752-5.139-10.484-10.137-21.06-13.357-32.34-4.845-16.419-6.08-33.661-5.859-50.708.048-20.734 2.489-41.413 6.364-61.764 3.48-18.174 8.205-36.108 14.266-53.593 7.874-22.861 17.434-45.107 27.66-67.004 9.437-19.89 19.187-39.771 31.85-57.85 7.9-11.32 17.018-21.713 25.583-32.52 9.562-11.91 18.516-24.55 24.432-38.707 1.719-4.753 3.899-9.967 2.293-15.054-.88-2.868-3.604-5.272-6.723-5.003z" transform="matrix(.45937 0 0 .45937 -271.977 84.38)"/><path style="opacity:1;fill:#000" d="M1171.563-141.438c-15.926.298-31.825 1.34-47.712 2.417-16.29 1.137-32.57 2.474-48.806 4.235-9.053 1.133-18.078 2.642-26.915 4.935-10.51 2.751-20.74 6.452-30.943 10.156-8.742 3.29-17.469 6.622-26.12 10.143-19.692 7.947-38.829 17.182-57.87 26.559-21.032 10.437-42.037 20.932-62.864 31.773-14.814 7.694-29.572 15.493-44.313 23.323-10.69 5.774-21.49 11.39-31.862 17.712-6.736 4.4-13.34 9.052-19.286 14.491-5.5 5.13-11.082 10.267-15.572 16.336-4.512 6.044-7.755 13.02-9.411 20.38-1.53 6.217-2.233 12.711-1.335 19.082 1.261 9.491 5.468 18.43 11.329 25.941 4.887 6.346 10.858 11.76 17.102 16.739 8.854 7.015 18.417 13.118 28.415 18.37 14.99 7.964 30.902 14.106 47.178 18.875 13.448 4.031 27.172 7.106 41.001 9.496 10.398 1.73 20.877 2.981 31.396 3.67 8.168.528 16.358.75 24.542.594 10.216-.13 20.412-.971 30.549-2.218 12.404-1.482 24.738-3.502 37.132-5.06 6.519-.776 13.056-1.558 19.632-1.54 6.058-.06 12.096.56 18.117 1.155 8.195.93 16.376 1.994 24.528 3.246a515.805 515.805 0 0 1 36.778 6.826c18.49 4.029 36.99 8.008 55.533 11.785 15.808 3.344 31.664 6.586 47.167 11.188 11.721 3.348 23.348 7.047 35.213 9.869a180.163 180.163 0 0 0 25.518 4.461c7.042.67 14.117.917 21.186 1.136 14.099.304 28.195-.34 42.262-1.247 11.329-.734 22.759-.607 33.97-2.6 7.782-1.574 15.336-4.44 22.04-8.723 9.79-6.076 18.382-14.287 24.23-24.266 4.05-7.012 6.747-14.781 8-22.778 1.389-8.695 1.496-17.553.972-26.327-.689-10.896-2.506-21.724-5.487-32.23-2.879-10.206-6.691-20.125-10.93-29.84-4.312-10.357-9.603-20.277-15.205-29.987-5.348-9.166-10.883-18.221-16.478-27.238a429.778 429.778 0 0 0-15.9-23.588c-8.743-11.976-18.33-23.342-28.76-33.884-12.082-12.18-25.317-23.208-39.43-32.962-13.587-9.495-28.103-17.67-43.294-24.309-10.725-4.548-21.813-8.263-33.172-10.87-6.697-1.487-13.456-2.694-20.268-3.516-7.84-.921-15.718-1.584-23.615-1.666a203.527 203.527 0 0 0-8.243-.043zm3.25 27.407c10.733.093 21.46.854 32.112 2.166 12.026 1.583 24.035 3.961 35.382 8.342 8.267 3.268 16.235 7.26 23.933 11.695 6.103 3.482 12.067 7.209 17.907 11.115 11.077 7.586 21.068 16.675 30.102 26.587 6.896 7.467 13.438 15.253 19.819 23.162 10.204 12.895 20.174 25.986 29.548 39.5 5.734 8.287 10.926 16.959 15.314 26.035a635.692 635.692 0 0 1 17.379 37.365c3.339 7.96 6.213 16.15 8.072 24.59 1.62 7.5 2.285 15.268 1.264 22.9-1.432 10.847-5.959 21.2-12.593 29.87-4.927 6.37-11.634 11.644-19.505 13.74-6.723 1.903-13.747 2.183-20.667 2.816-12.504.944-25.055.725-37.582 1.077-10.06.207-20.155.537-30.184-.506-7.657-.722-15.23-2.174-22.66-4.151-8.265-2.127-16.439-4.592-24.648-6.925-17.199-5.021-34.501-9.786-52.116-13.13-30.56-5.979-61.06-12.267-91.649-18.098-14.138-2.653-28.304-5.372-42.657-6.563-9.6-.788-19.266-.88-28.868-.05-9.367.761-18.691 1.979-28.03 3.028-17.635 2.038-35.275 4.203-53.01 5.165-11.552.59-23.173.44-34.657-1.032-7.183-.92-14.284-2.37-21.303-4.14-8.674-2.148-17.253-4.669-25.798-7.277-11.62-3.718-23.161-7.799-34.132-13.17-7.32-3.533-14.395-7.596-21.06-12.248-7.094-4.994-13.889-10.613-19.135-17.577-3.829-5.254-6.805-11.46-6.922-18.067.074-5.998 2.717-11.676 6.334-16.353 3.01-4.055 6.431-7.792 9.982-11.376 4.665-4.523 9.932-8.363 15.333-11.953 6.984-4.936 14.38-9.25 21.905-13.302 12.291-6.71 24.854-12.901 37.264-19.384 23.333-12.018 46.614-24.137 69.953-36.14a767.87 767.87 0 0 1 33.39-15.6c21.723-9.41 43.516-18.698 65.733-26.892 8.29-2.994 16.734-5.635 25.41-7.257 11.694-2.344 23.582-3.445 35.433-4.662 10.769-1.083 21.56-1.945 32.374-2.427 14.4-.638 28.818-.983 43.233-.873z" transform="matrix(.45937 0 0 .45937 -271.977 84.38)"/></svg>